<svg width="30" height="42" viewBox="0 0 30 42" fill="none" xmlns="http://www.w3.org/2000/svg">
<path d="M17.7555 40.1682C16.5341 42.2816 13.4739 42.2816 12.2525 40.1682L2.02858 22.4651C-3.73522 12.4745 3.46954 0 14.9971 0C26.5247 0 33.7432 12.4882 27.9657 22.4651L17.7555 40.1682Z" fill="#FFD167"/>
<path d="M13.5909 7.80808C14.1763 6.73064 15.5422 6.73064 16.1276 7.80808L19.1522 13.6263L21.7865 18.5825C22.4695 19.7677 21.3963 21.2761 20.2255 20.9529L15.3471 19.5522C15.152 19.4445 14.8592 19.4445 14.6641 19.5522L9.78576 20.9529C8.51738 21.2761 7.5417 19.8755 8.22467 18.5825L10.859 13.6263L13.5909 7.80808Z" fill="white"/>
</svg>
