<svg width="30" height="42" viewBox="0 0 30 42" fill="none" xmlns="http://www.w3.org/2000/svg">
<path d="M17.7555 40.1682C16.5341 42.2816 13.4739 42.2816 12.2525 40.1682L2.02858 22.4651C-3.73522 12.4745 3.46954 0 14.9971 0C26.5247 0 33.7432 12.4882 27.9657 22.4651L17.7555 40.1682Z" fill="#FFA366"/>
<path d="M23.2217 12.1234L18.2639 9.69742L13.0754 7.1744C12.153 6.6892 11 7.27144 11 8.24183V13.2879V20.3717V25.2237C11 25.6118 11.4612 26 11.9224 26C12.3836 26 12.8448 25.6118 12.8448 25.2237V19.4013L18.2639 16.7813L23.2217 14.3553C24.2594 13.8701 24.2594 12.6086 23.2217 12.1234Z" fill="white"/>
</svg>
