<svg width="30" height="42" viewBox="0 0 30 42" fill="none" xmlns="http://www.w3.org/2000/svg">
<path d="M17.7555 40.1682C16.5341 42.2816 13.4739 42.2816 12.2525 40.1682L2.02858 22.4651C-3.73522 12.4745 3.46954 0 14.9971 0C26.5247 0 33.7432 12.4882 27.9657 22.4651L17.7555 40.1682Z" fill="#9AD48D"/>
<path d="M21.1238 12.8898H17.3009V9.06687C17.3009 7.89058 16.2716 6.86133 15.0954 6.86133C13.9191 6.86133 12.8898 7.89058 12.8898 9.06687V12.8898H9.06687C7.89058 12.8898 6.86133 13.9191 6.86133 15.0953C6.86133 16.2716 7.89058 17.3009 9.06687 17.3009H12.8898V21.1238C12.8898 22.3001 13.9191 23.3293 15.0954 23.3293C16.2716 23.3293 17.3009 22.3001 17.3009 21.1238V17.3009H21.1238C22.3001 17.3009 23.3293 16.2716 23.3293 15.0953C23.3293 13.9191 22.3001 12.8898 21.1238 12.8898Z" fill="white"/>
</svg>
